<svg id="flat" height="512" viewBox="0 0 512 512" width="512" xmlns="http://www.w3.org/2000/svg"><path d="m440 176h-64v-56h23.02945a40.97052 40.97052 0 0 1 28.97055 12 40.97052 40.97052 0 0 1 12 28.97054z" fill="#b82f1a"/><path d="m264 168v-32a40 40 0 0 1 40-40 40 40 0 0 1 40 40v32z" fill="#cc442f"/><path d="m168 126.99v49.01h-96v-49.01a31.48878 31.48878 0 0 1 .78-7 31.961 31.961 0 0 1 10.73-17.59l36.49-30.4 36.49 30.4a32.01809 32.01809 0 0 1 11.51 24.59z" fill="#b1712c"/><path d="m133.65991 109.66-1.37991 1.37a84.69666 84.69666 0 0 1 -60.28 24.97v-9.01a31.48878 31.48878 0 0 1 .78-7 68.72228 68.72228 0 0 0 48.19-20.27l1.37012-1.38z" fill="#91591c"/><path d="m168 126.99v2.84l-18.8 13.43a132.0365 132.0365 0 0 1 -77.2 24.74v-16a116.13935 116.13935 0 0 0 67.8999-21.76l24.69019-17.63a31.97944 31.97944 0 0 1 3.40991 14.38z" fill="#91591c"/><path d="m264 126.99v41.01h-96v-41.01a31.48878 31.48878 0 0 1 .78-7 31.961 31.961 0 0 1 10.73-17.59l36.49-30.4 36.49 30.4a32.01809 32.01809 0 0 1 11.51 24.59z" fill="#a36522"/><path d="m229.65991 109.66-1.37991 1.37a84.69666 84.69666 0 0 1 -60.28 24.97v-9.01a31.48878 31.48878 0 0 1 .78-7 68.72228 68.72228 0 0 0 48.19-20.27l1.37012-1.38z" fill="#91591c"/><path d="m264 126.99v2.84l-18.8 13.43a132.0365 132.0365 0 0 1 -77.2 24.74v-16a116.13935 116.13935 0 0 0 67.8999-21.76l24.69019-17.63a31.97944 31.97944 0 0 1 3.40991 14.38z" fill="#91591c"/><path d="m48 224h416v168h-416z" fill="#b1712c"/><path d="m488 392a86.83274 86.83274 0 0 1 -77.66556 48h-308.66886a86.83274 86.83274 0 0 1 -77.66556-48z" fill="#e5e7e9"/><path d="m304 168v-12a20 20 0 0 1 20-20 20 20 0 0 1 20 20v12" fill="#851c56"/><path d="m264 168v-4a20 20 0 0 1 20-20 20 20 0 0 1 20 20v4z" fill="#992565"/><path d="m344 168v-16a32 32 0 0 1 32-32 32 32 0 0 1 32 32v16z" fill="#cc442f"/><path d="m368 144h16v24h-16z" fill="#b82f1a"/><path d="m316.7998 126.3999-9.5996-12.7998 12.7998-9.6001a40.19176 40.19176 0 0 0 16-32h16a56.267 56.267 0 0 1 -22.40039 44.7998z" fill="#91591c"/><path d="m80 168h352a32 32 0 0 1 32 32v112a32 32 0 0 1 -32-32v-32a16 16 0 0 0 -16-16 16 16 0 0 0 -16 16v56a16 16 0 0 1 -16 16 16 16 0 0 1 -16-16v-36.00089a35.99911 35.99911 0 0 0 -36-35.99911 36.00081 36.00081 0 0 0 -36 36.00082v27.99918a16 16 0 0 1 -16 16 16 16 0 0 1 -16-16v-48a16 16 0 0 0 -16-16 16 16 0 0 0 -16 16v16a16 16 0 0 1 -16 16 16 16 0 0 1 -16-16v-4a28 28 0 0 0 -28-28 28 28 0 0 0 -28 28v36a16 16 0 0 1 -16 16 16 16 0 0 1 -16-16v-40a16 16 0 0 0 -16-16 16 16 0 0 0 -16 16v16a32 32 0 0 1 -32 32v-104a32 32 0 0 1 32-32z" fill="#f5c99d"/><g fill="#91591c"><path d="m216 308.686h16v22.627h-16z" transform="matrix(.707 -.707 .707 .707 -160.666 252.118)"/><path d="m160 324.686h16v22.627h-16z" transform="matrix(.707 -.707 .707 .707 -188.382 217.206)"/><path d="m304 348.686h16v22.627h-16z" transform="matrix(.707 -.707 .707 .707 -163.176 326.059)"/><path d="m416 324.686h16v22.627h-16z" transform="matrix(.707 -.707 .707 .707 -113.401 398.225)"/><path d="m80 324.686h16v22.627h-16z" transform="matrix(.707 -.707 .707 .707 -211.813 160.638)"/><path d="m196.686 352h22.627v16h-22.627z" transform="matrix(.707 -.707 .707 .707 -193.641 252.537)"/><path d="m324.686 328h22.627v16h-22.627z" transform="matrix(.707 -.707 .707 .707 -139.176 336.021)"/><path d="m260.686 336h22.627v16h-22.627z" transform="matrix(.707 -.707 .707 .707 -163.58 293.107)"/><path d="m372.686 352h22.627v16h-22.627z" transform="matrix(.707 -.707 .707 .707 -142.087 376.993)"/><path d="m116.686 352h22.627v16h-22.627z" transform="matrix(.707 -.707 .707 .707 -217.075 195.966)"/></g></svg>